grf
version=1
nRows=16
nColumns=28
inDegrees=no
endheader
time	ground_force_1_vx	ground_force_1_vy	ground_force_1_vz	ground_force_1_px	ground_force_1_py	ground_force_1_pz	ground_moment_1_mx	ground_moment_1_my	ground_moment_1_mz	ground_force_2_vx	ground_force_2_vy	ground_force_2_vz	ground_force_2_px	ground_force_2_py	ground_force_2_pz	ground_moment_2_mx	ground_moment_2_my	ground_moment_2_mz	ground_force_3_vx	ground_force_3_vy	ground_force_3_vz	ground_force_3_px	ground_force_3_py	ground_force_3_pz	ground_moment_3_mx	ground_moment_3_my	ground_moment_3_mz
      0.91000000	    -10.35459186	     -1.91702383	   -530.23384278	    597.80929439	   -988.76584844	      1.38881411	      1.47512611	      5.33407508	   2922.78593005	      0.67799611	     -4.20508102	      2.19620230	    143.78696295	  -1569.58967066	      0.27756819	      0.08700544	      1.12523593	  -1348.34031052	      2.07524318	     -0.87167102	      4.43389564	    573.87063346	   -302.34129648	      0.45326614	     -0.17769338	      1.30532256	    635.61396063
      0.92000000	    -12.03398485	      3.26241985	   -540.24959996	    597.81962398	   -984.82682296	      1.38162018	      1.51571999	      5.48086308	   3003.21784769	      0.78153852	     -4.05290477	      3.02915842	    226.08245822	  -1567.19314419	      0.28487852	      0.05605709	      0.72498287	   -868.72770549	      1.98179936	     -0.74065983	      3.74629243	    593.79666304	   -263.94933623	      0.37999341	     -0.21194382	      1.55692384	    758.12872287
      0.93000000	    -14.45964980	      8.10293699	   -555.30200426	    598.13479814	   -981.11353482	      1.37468438	      1.62229896	      5.86625400	   3214.39132201	      0.57724179	     -4.10618945	      2.55124016	    193.06142778	  -1587.58822742	      0.26572736	      0.07004373	      0.90587119	  -1085.48137072	      1.87854030	     -0.98191391	      4.40614513	    542.92363406	   -322.13827289	      0.48527041	     -0.16676721	      1.22505977	    596.53078443
      0.94000000	    -16.42723716	     13.85664472	   -575.10779665	    598.21516729	   -977.78655058	      1.36857208	      1.74798467	      6.32073513	   3463.42250903	      0.56558270	     -4.02936560	      2.88507805	    224.48629200	  -1660.00628516	      0.20731980	      0.06440620	      0.83296141	   -998.11551878	      2.01963473	     -0.79019201	      4.39474065	    560.69980382	   -346.02921100	      0.53930334	     -0.17684193	      1.29906789	    632.56830678
      0.95000000	    -18.09042780	     21.06853422	   -599.35774937	    597.83664614	   -975.06409735	      1.36379465	      1.94546140	      7.03481353	   3854.69902623	      0.63802036	     -3.94323785	      2.65601254	    174.95163537	  -1658.55221365	      0.20533691	      0.07427568	      0.96060279	  -1151.06478795	      2.09624697	     -0.85050094	      4.36037965	    527.71437310	   -323.55129399	      0.48392032	     -0.14083963	      1.03459762	    503.78711763
      0.96000000	    -20.65993623	     28.93476549	   -628.34962953	    597.87257237	   -972.66083924	      1.35939058	      2.09499354	      7.57552370	   4150.97908171	      0.51566466	     -3.92318749	      2.83363445	    226.25584698	  -1655.52268210	      0.21117570	      0.06249988	      0.80830706	   -968.57286958	      2.02044648	     -0.95274358	      4.91104917	    570.47990683	   -379.79392698	      0.61137808	     -0.15307655	      1.12448913	    547.55890354
      0.97000000	    -23.44501360	     37.72786720	   -664.08836145	    597.67568699	   -970.53166588	      1.35560421	      2.29963528	      8.31551086	   4556.45220244	      0.63900036	     -3.96766602	      2.10071406	     96.28117806	  -1613.14915467	      0.23815087	      0.09494578	      1.22792790	  -1471.39336514	      2.07143002	     -0.79519439	      4.77242430	    530.78655256	   -360.10480697	      0.55984696	     -0.16892192	      1.24088812	    604.23824197
      0.98000000	    -24.97215180	     47.88840948	   -706.68560763	    597.10613519	   -969.34892495	      1.35373317	      2.64036799	      9.54760475	   5231.57331116	      0.80251527	     -4.06980660	      2.02987190	     73.21388302	  -1584.08945257	      0.26091370	      0.09875888	      1.27724251	  -1530.48575556	      1.99291416	     -1.01593426	      4.59847827	    575.47862776	   -349.52651442	      0.55061714	     -0.17857142	      1.31177261	    638.75474687
      0.99000000	    -25.91234695	     60.37115620	   -752.45508434	    596.32203478	   -968.00326879	      1.35167308	      2.95657775	     10.69102334	   5858.10512941	      0.71268221	     -3.75275193	      2.15775514	     74.28197042	  -1542.44023563	      0.29574032	      0.08852327	      1.14486590	  -1371.86237261	      1.90800794	     -1.04594524	      4.76981695	    588.77017118	   -299.96003567	      0.45254122	     -0.22297716	      1.63797391	    797.59525460
      1.00000000	    -27.11718121	     74.27930642	   -800.45746547	    595.90142522	   -967.17322251	      1.35037053	      3.30588488	     11.95412243	   6550.21542217	      0.63820536	     -3.90334377	      1.94961939	    103.47086907	  -1580.68253710	      0.26570931	      0.08500835	      1.09940768	  -1317.39099631	      2.01794752	     -0.92887073	      4.90016769	    571.09728673	   -386.45856538	      0.62523744	     -0.19271116	      1.41564212	    689.33298019
      1.01000000	    -29.19753820	     88.99236835	   -850.27946767	    595.58338229	   -966.29927313	      1.34893609	      3.58747761	     12.97236537	   7108.15772354	      0.45677436	     -4.08856275	      1.97598707	     84.88435091	  -1598.92210595	      0.24928842	      0.10180924	      1.31669255	  -1577.75768599	      1.97980193	     -1.14869776	      4.62178558	    556.99675993	   -368.93435753	      0.58530705	     -0.18071782	      1.32753991	    646.43247887
      1.02000000	    -33.35664126	    102.47859020	   -899.77557437	    595.22565611	   -965.68094005	      1.34798818	      3.79067407	     13.70712641	   7510.76720911	      0.45248947	     -3.90840406	      2.15251148	    154.16064572	  -1610.43939591	      0.24414709	      0.08166655	      1.05618836	  -1265.60244192	      2.02889038	     -0.89618528	      3.10771562	    627.08023934	     32.57973579	     -0.21966588	     -0.40273657	      2.95847342	   1440.59947885
      1.03000000	    -38.02776391	    117.83704399	   -943.38705564	    595.32731487	   -964.88935290	      1.34649223	      3.85697357	     13.94686623	   7642.13172443	      0.57066896	     -3.78052629	      2.22410088	    149.69379774	  -1608.57834529	      0.24541197	      0.07384950	      0.95509107	  -1144.46023835	      1.68052788	     -0.59960903	     -2.03300095	    490.32725970	  -2126.03794304	      4.17512787	      0.68251928	     -5.01373679	  -2441.38972727
      1.04000000	    -44.46238895	    130.25910635	   -977.96552020	    595.47002095	   -964.15808053	      1.34508564	      3.76511738	     13.61471307	   7460.12967824	      0.62139177	     -3.72734795	      2.61500420	    142.98194602	  -1684.79664189	      0.18137210	      0.08234320	      1.06493944	  -1276.08862004	      1.77030487	      1.49674109	    -11.92754989	    564.00115819	  -1108.48323263	      2.10603273	      0.24763382	     -1.81909996	   -885.79280088
      1.05000000	    -49.67625071	    143.04525705	  -1004.94974340	    595.46614910	   -963.62637673	      1.34411723	      3.67932465	     13.30448544	   7290.14164119	      0.63768388	     -3.78653664	      1.76879479	     -1.96797539	  -1641.31070003	      0.20830930	      0.10927666	      1.41326822	  -1693.48174565	      1.67679687	      5.38642368	    -24.52555855	    568.55602031	  -1005.27662480	      1.89535682	      0.12371453	     -0.90879787	   -442.53016593
      1.06000000	    -54.37648668	    154.39614110	  -1023.97139719	    595.62252548	   -962.54928957	      1.34207263	      3.52398137	     12.74276214	   6982.34751501	      0.57855771	     -3.99135275	      1.39660892	    -64.25684874	  -1612.52797369	      0.22831010	      0.13775860	      1.78162342	  -2134.87198587	      2.53974571	      9.63911098	    -38.97939352	    571.10783402	   -956.77144231	      1.79645801	      0.11806849	     -0.86732248	   -422.33413640
